%TF.GenerationSoftware,Altium Limited,Altium Designer,26.9.1 (10)*%
G04 Layer_Color=65535*
G04 Board_Origin=0|0*
%FSLAX45Y45*%
%MOMM*%
%TF.SameCoordinates,4240BD10-6AC7-45DB-958D-C0A4B6E88BAE*%
%TF.FilePolarity,Positive*%
%TF.FileFunction,Legend,Top*%
%TF.Part,Single*%
G01*
G75*
%TA.AperFunction,NonConductor*%
%ADD52C,0.20000*%
%ADD53C,0.25000*%
%ADD54C,0.25400*%
%ADD55C,0.17500*%
%ADD56C,0.12700*%
%ADD57C,0.30000*%
D52*
X11631500Y6904800D02*
G03*
X11631500Y6904800I-10000J0D01*
G01*
X9276927Y6910715D02*
X9400000D01*
X9276927D02*
Y7000000D01*
X11996000Y7345500D02*
X12263500D01*
X11996000Y8154500D02*
X12263500D01*
X11996000Y8107500D02*
Y8154500D01*
Y7345500D02*
Y7392500D01*
X9980000Y7180000D02*
X10022500D01*
X9980000D02*
Y7222500D01*
X10677500Y7180000D02*
X10720000D01*
Y7222500D01*
Y7877500D02*
Y7920000D01*
X10677500D02*
X10720000D01*
X9980000D02*
X10022500D01*
X9980000Y7877500D02*
Y7920000D01*
X11030000Y7245000D02*
X11100000D01*
X11030000Y7405000D02*
X11100000D01*
Y7245000D02*
Y7405000D01*
X9765000Y8285000D02*
Y8317500D01*
X9732500Y8285000D02*
X9765000D01*
X9335000D02*
X9367500D01*
X9335000D02*
Y8317500D01*
Y8682500D02*
Y8715000D01*
X9367500D01*
X9765000Y8682500D02*
Y8715000D01*
X9732500D02*
X9765000D01*
D53*
X11958500Y7617500D02*
G03*
X11958500Y7617500I-12500J0D01*
G01*
X9927500Y7905000D02*
G03*
X9927500Y7905000I-12500J0D01*
G01*
X9687500Y8795000D02*
G03*
X9687500Y8795000I-12500J0D01*
G01*
X11274967Y8199959D02*
X11249975Y8224951D01*
X11199992D01*
X11175000Y8199959D01*
Y8174967D01*
X11199992Y8149975D01*
X11249975D01*
X11274967Y8124983D01*
Y8099991D01*
X11249975Y8075000D01*
X11199992D01*
X11175000Y8099991D01*
X11324951Y8224951D02*
Y8075000D01*
X11374935Y8124983D01*
X11424919Y8075000D01*
Y8224951D01*
X11474903D02*
Y8075000D01*
X11549878D01*
X11574870Y8099991D01*
Y8199959D01*
X11549878Y8224951D01*
X11474903D01*
D54*
X9769288Y6266328D02*
G03*
X9769288Y6266328I-10270J0D01*
G01*
X10001967Y6552359D02*
X9976575Y6577751D01*
X9925792D01*
X9900400Y6552359D01*
Y6450792D01*
X9925792Y6425400D01*
X9976575D01*
X10001967Y6450792D01*
Y6501575D01*
X9951184D01*
X10052751Y6425400D02*
Y6577751D01*
X10128926D01*
X10154318Y6552359D01*
Y6501575D01*
X10128926Y6476183D01*
X10052751D01*
X10205102Y6577751D02*
X10255885D01*
X10230493D01*
Y6425400D01*
X10205102D01*
X10255885D01*
X10408236Y6577751D02*
X10357452D01*
X10332060Y6552359D01*
Y6450792D01*
X10357452Y6425400D01*
X10408236D01*
X10433628Y6450792D01*
Y6552359D01*
X10408236Y6577751D01*
X12155685Y7277751D02*
Y7150792D01*
X12181077Y7125400D01*
X12231860D01*
X12257252Y7150792D01*
Y7277751D01*
X12409603Y7252359D02*
X12384211Y7277751D01*
X12333427D01*
X12308036Y7252359D01*
Y7226967D01*
X12333427Y7201575D01*
X12384211D01*
X12409603Y7176184D01*
Y7150792D01*
X12384211Y7125400D01*
X12333427D01*
X12308036Y7150792D01*
X12460386Y7277751D02*
Y7125400D01*
X12536562D01*
X12561954Y7150792D01*
Y7176184D01*
X12536562Y7201575D01*
X12460386D01*
X12536562D01*
X12561954Y7226967D01*
Y7252359D01*
X12536562Y7277751D01*
X12460386D01*
D55*
X11123000Y8273500D02*
Y8653500D01*
Y8273500D02*
X11703000D01*
X11823000Y8393500D01*
Y8533500D01*
X11703000Y8653500D02*
X11823000Y8533500D01*
X11123000Y8653500D02*
X11703000D01*
X12259715Y6609715D02*
Y6735000D01*
X12130285D02*
X12259715D01*
X12130285Y6609715D02*
Y6735000D01*
D56*
X11728500Y6281500D02*
Y6653500D01*
X11056500Y6281500D02*
Y6653500D01*
X11702500D02*
X11728500D01*
X11056500D02*
X11081500D01*
X11056500Y6281500D02*
X11205500D01*
X11568500D02*
X11728500D01*
D57*
X9562500Y5860000D02*
Y6235000D01*
X9687500Y6360000D01*
X10637500D01*
X10762500Y6235000D01*
Y5860000D02*
Y6235000D01*
%TF.MD5,35d949ccd849c0b4b49836bc8c64a41e*%
M02*
