%TF.GenerationSoftware,Altium Limited,Altium Designer,26.9.1 (10)*%
G04 Layer_Color=16711935*
G04 Board_Origin=0|0*
%FSLAX45Y45*%
%MOMM*%
%TF.SameCoordinates,4240BD10-6AC7-45DB-958D-C0A4B6E88BAE*%
%TF.FilePolarity,Negative*%
%TF.FileFunction,Soldermask,Bot*%
%TF.Part,Single*%
G01*
G75*
%TA.AperFunction,ViaPad*%
%ADD76C,1.20500*%
%ADD77C,2.08000*%
%TA.AperFunction,ComponentPad*%
%ADD78C,1.14700*%
%TA.AperFunction,ViaPad*%
%ADD79C,0.78000*%
%ADD80C,0.68000*%
%ADD81C,0.58000*%
D76*
X12483545Y8572129D02*
D03*
X8875000Y6225000D02*
D03*
D77*
X12425000Y8800000D02*
D03*
Y5950000D02*
D03*
X8950000D02*
D03*
Y8789853D02*
D03*
D78*
X11219000Y8565100D02*
D03*
Y8361900D02*
D03*
X11727000Y8463500D02*
D03*
D79*
X9752361Y7423163D02*
D03*
X11140067Y8734933D02*
D03*
X10944995Y8745000D02*
D03*
X11350000Y8600000D02*
D03*
X9900000Y8745000D02*
D03*
X11450000Y7975000D02*
D03*
X11150000D02*
D03*
X9250000Y7200000D02*
D03*
Y7350000D02*
D03*
X9625000Y8125000D02*
D03*
X11925000Y7875000D02*
D03*
X12221000D02*
D03*
X10925000Y7800000D02*
D03*
X11871247Y7185340D02*
D03*
X12200000Y6975000D02*
D03*
X11725000Y7175000D02*
D03*
X11614300Y7100000D02*
D03*
X11900000Y6925000D02*
D03*
X11625000D02*
D03*
X10850000Y7150000D02*
D03*
X10600000Y6950000D02*
D03*
X10400000Y6900000D02*
D03*
X10475000Y6075000D02*
D03*
X9975000Y8325000D02*
D03*
X10200000D02*
D03*
X10150000Y8125000D02*
D03*
X9675000Y8200000D02*
D03*
X9098916Y8547394D02*
D03*
X9100000Y8375000D02*
D03*
X9550000Y7725000D02*
D03*
X9750000Y7275000D02*
D03*
X9725000Y7000000D02*
D03*
X10825000Y5975000D02*
D03*
X10375000D02*
D03*
X9430000Y7875000D02*
D03*
X9352500Y8050000D02*
D03*
X10435356Y8525000D02*
D03*
X10100000D02*
D03*
D80*
X9770001Y7506412D02*
D03*
D81*
X10460000Y7770000D02*
D03*
X10350000D02*
D03*
X10570000D02*
D03*
X10350000Y7660000D02*
D03*
X10570000D02*
D03*
Y7550000D02*
D03*
X10460000Y7440000D02*
D03*
X10570000D02*
D03*
X10460000Y7330000D02*
D03*
Y7660000D02*
D03*
Y7550000D02*
D03*
X10350000D02*
D03*
Y7330000D02*
D03*
Y7440000D02*
D03*
X10570000Y7330000D02*
D03*
X9605000Y8555000D02*
D03*
X9495000D02*
D03*
Y8445000D02*
D03*
X9605000D02*
D03*
X10240000Y7770000D02*
D03*
Y7660000D02*
D03*
X10130000Y7770000D02*
D03*
Y7660000D02*
D03*
Y7550000D02*
D03*
X10240000D02*
D03*
Y7440000D02*
D03*
X10130000Y7330000D02*
D03*
X10240000D02*
D03*
X10130000Y7440000D02*
D03*
%TF.MD5,9b248a844bc408a5bbb4d132fdc38143*%
M02*
