%TF.GenerationSoftware,Altium Limited,Altium Designer,26.9.1 (10)*%
G04 Layer_Physical_Order=4*
G04 Layer_Color=16711680*
G04 Board_Origin=0|0*
%FSLAX45Y45*%
%MOMM*%
%TF.SameCoordinates,4240BD10-6AC7-45DB-958D-C0A4B6E88BAE*%
%TF.FilePolarity,Positive*%
%TF.FileFunction,Copper,L4,Bot,Signal*%
%TF.Part,Single*%
G01*
G75*
%TA.AperFunction,Conductor*%
%ADD10C,0.45000*%
%ADD14C,0.50000*%
%ADD15C,0.25000*%
%ADD40C,0.20000*%
%ADD42C,0.24999*%
%TA.AperFunction,ViaPad*%
%ADD45C,1.12500*%
%ADD46C,2.00000*%
%TA.AperFunction,ComponentPad*%
%ADD47C,1.06700*%
%TA.AperFunction,ViaPad*%
%ADD48C,0.80000*%
%ADD49C,0.70000*%
%ADD50C,0.60000*%
%ADD51C,0.50000*%
D10*
X11150000Y7975000D02*
X11450000D01*
D14*
X10375000Y5975000D02*
X10825000D01*
X9426173Y7878827D02*
Y7976327D01*
Y7878827D02*
X9430000Y7875000D01*
D15*
X9352500Y8050000D02*
X9426173Y7976327D01*
D40*
X9770001Y7506412D02*
Y7822500D01*
X10919359Y8011075D02*
X10925000Y8016716D01*
X10944995Y8745000D01*
X10913284Y8005000D02*
X10919359Y8011075D01*
X9952500Y8005000D02*
X10913284D01*
X9770001Y7822500D02*
X9952500Y8005000D01*
D42*
X10100000Y8525000D02*
X10435356D01*
D45*
X12483545Y8572129D02*
D03*
X8875000Y6225000D02*
D03*
D46*
X12425000Y8800000D02*
D03*
Y5950000D02*
D03*
X8950000D02*
D03*
Y8789853D02*
D03*
D47*
X11219000Y8565100D02*
D03*
Y8361900D02*
D03*
X11727000Y8463500D02*
D03*
D48*
X12300007Y8600005D02*
D03*
X12200007Y8400005D02*
D03*
Y7200004D02*
D03*
X12300007Y6600004D02*
D03*
X12200007Y6400003D02*
D03*
X12300007Y6200003D02*
D03*
X12200007Y6000003D02*
D03*
X12100007Y8200004D02*
D03*
X12000006Y6400003D02*
D03*
X12100007Y6200003D02*
D03*
X12000006Y6000003D02*
D03*
X11900006Y8600005D02*
D03*
X11700006D02*
D03*
Y8200004D02*
D03*
Y6200003D02*
D03*
X11400006Y7600004D02*
D03*
X11300006Y7800004D02*
D03*
Y7400004D02*
D03*
X11200006Y6400003D02*
D03*
X11000006Y6800004D02*
D03*
X11100006Y6600004D02*
D03*
X11000006Y6400003D02*
D03*
X11100006Y6200003D02*
D03*
X10800006Y8400005D02*
D03*
X10900006Y7000004D02*
D03*
X10700006Y8600005D02*
D03*
X10600006Y6800004D02*
D03*
X10700006Y6600004D02*
D03*
X10600006Y6400003D02*
D03*
X10700006Y6200003D02*
D03*
X10500006Y6600004D02*
D03*
X10000005Y7200004D02*
D03*
X9600005Y6800004D02*
D03*
Y6400003D02*
D03*
X9700005Y6200003D02*
D03*
X9400005Y6800004D02*
D03*
Y6400003D02*
D03*
X9500005Y6200003D02*
D03*
X9400005Y6000003D02*
D03*
X9200005Y8000004D02*
D03*
Y7600004D02*
D03*
Y6400003D02*
D03*
X9300005Y6200003D02*
D03*
X9200005Y6000003D02*
D03*
X9100005Y8200004D02*
D03*
X9000005Y7600004D02*
D03*
Y7200004D02*
D03*
Y6800004D02*
D03*
X9100005Y6600004D02*
D03*
X9000005Y6400003D02*
D03*
X9100005Y6200003D02*
D03*
D49*
X9752361Y7423163D02*
D03*
X11140067Y8734933D02*
D03*
X10944995Y8745000D02*
D03*
X11350000Y8600000D02*
D03*
X9900000Y8745000D02*
D03*
X11450000Y7975000D02*
D03*
X11150000D02*
D03*
X9250000Y7200000D02*
D03*
Y7350000D02*
D03*
X9625000Y8125000D02*
D03*
X11925000Y7875000D02*
D03*
X12221000D02*
D03*
X10925000Y7800000D02*
D03*
X11871247Y7185340D02*
D03*
X12200000Y6975000D02*
D03*
X11725000Y7175000D02*
D03*
X11614300Y7100000D02*
D03*
X11900000Y6925000D02*
D03*
X11625000D02*
D03*
X10850000Y7150000D02*
D03*
X10600000Y6950000D02*
D03*
X10400000Y6900000D02*
D03*
X10475000Y6075000D02*
D03*
X9975000Y8325000D02*
D03*
X10200000D02*
D03*
X10150000Y8125000D02*
D03*
X9675000Y8200000D02*
D03*
X9098916Y8547394D02*
D03*
X9100000Y8375000D02*
D03*
X9550000Y7725000D02*
D03*
X9750000Y7275000D02*
D03*
X9725000Y7000000D02*
D03*
X10825000Y5975000D02*
D03*
X10375000D02*
D03*
X9430000Y7875000D02*
D03*
X9352500Y8050000D02*
D03*
X10435356Y8525000D02*
D03*
X10100000D02*
D03*
D50*
X9770001Y7506412D02*
D03*
D51*
X10460000Y7770000D02*
D03*
X10350000D02*
D03*
X10570000D02*
D03*
X10350000Y7660000D02*
D03*
X10570000D02*
D03*
Y7550000D02*
D03*
X10460000Y7440000D02*
D03*
X10570000D02*
D03*
X10460000Y7330000D02*
D03*
Y7660000D02*
D03*
Y7550000D02*
D03*
X10350000D02*
D03*
Y7330000D02*
D03*
Y7440000D02*
D03*
X10570000Y7330000D02*
D03*
X9605000Y8555000D02*
D03*
X9495000D02*
D03*
Y8445000D02*
D03*
X9605000D02*
D03*
X10240000Y7770000D02*
D03*
Y7660000D02*
D03*
X10130000Y7770000D02*
D03*
Y7660000D02*
D03*
Y7550000D02*
D03*
X10240000D02*
D03*
Y7440000D02*
D03*
X10130000Y7330000D02*
D03*
X10240000D02*
D03*
X10130000Y7440000D02*
D03*
%TF.MD5,5b95e0d45dfea82e19d500ae83548b38*%
M02*
