%TF.GenerationSoftware,Altium Limited,Altium Designer,26.9.1 (10)*%
G04 Layer_Color=8421504*
G04 Board_Origin=0|0*
%FSLAX45Y45*%
%MOMM*%
%TF.SameCoordinates,4240BD10-6AC7-45DB-958D-C0A4B6E88BAE*%
%TF.FilePolarity,Positive*%
%TF.FileFunction,Paste,Top*%
%TF.Part,Single*%
G01*
G75*
%TA.AperFunction,SMDPad,CuDef*%
G04:AMPARAMS|DCode=17|XSize=1.3mm|YSize=1.1mm|CornerRadius=0.055mm|HoleSize=0mm|Usage=FLASHONLY|Rotation=0.000|XOffset=0mm|YOffset=0mm|HoleType=Round|Shape=RoundedRectangle|*
%AMROUNDEDRECTD17*
21,1,1.30000,0.99000,0,0,0.0*
21,1,1.19000,1.10000,0,0,0.0*
1,1,0.11000,0.59500,-0.49500*
1,1,0.11000,-0.59500,-0.49500*
1,1,0.11000,-0.59500,0.49500*
1,1,0.11000,0.59500,0.49500*
%
%ADD17ROUNDEDRECTD17*%
G04:AMPARAMS|DCode=19|XSize=0.6mm|YSize=0.7mm|CornerRadius=0.075mm|HoleSize=0mm|Usage=FLASHONLY|Rotation=0.000|XOffset=0mm|YOffset=0mm|HoleType=Round|Shape=RoundedRectangle|*
%AMROUNDEDRECTD19*
21,1,0.60000,0.55000,0,0,0.0*
21,1,0.45000,0.70000,0,0,0.0*
1,1,0.15000,0.22500,-0.27500*
1,1,0.15000,-0.22500,-0.27500*
1,1,0.15000,-0.22500,0.27500*
1,1,0.15000,0.22500,0.27500*
%
%ADD19ROUNDEDRECTD19*%
%TA.AperFunction,ConnectorPad*%
%ADD20R,1.38000X0.45000*%
%TA.AperFunction,SMDPad,CuDef*%
G04:AMPARAMS|DCode=21|XSize=0.6mm|YSize=0.7mm|CornerRadius=0.075mm|HoleSize=0mm|Usage=FLASHONLY|Rotation=90.000|XOffset=0mm|YOffset=0mm|HoleType=Round|Shape=RoundedRectangle|*
%AMROUNDEDRECTD21*
21,1,0.60000,0.55000,0,0,90.0*
21,1,0.45000,0.70000,0,0,90.0*
1,1,0.15000,0.27500,0.22500*
1,1,0.15000,0.27500,-0.22500*
1,1,0.15000,-0.27500,-0.22500*
1,1,0.15000,-0.27500,0.22500*
%
%ADD21ROUNDEDRECTD21*%
%ADD22O,0.80000X0.25000*%
G04:AMPARAMS|DCode=23|XSize=1.4mm|YSize=1.7mm|CornerRadius=0.175mm|HoleSize=0mm|Usage=FLASHONLY|Rotation=180.000|XOffset=0mm|YOffset=0mm|HoleType=Round|Shape=RoundedRectangle|*
%AMROUNDEDRECTD23*
21,1,1.40000,1.35000,0,0,180.0*
21,1,1.05000,1.70000,0,0,180.0*
1,1,0.35000,-0.52500,0.67500*
1,1,0.35000,0.52500,0.67500*
1,1,0.35000,0.52500,-0.67500*
1,1,0.35000,-0.52500,-0.67500*
%
%ADD23ROUNDEDRECTD23*%
G04:AMPARAMS|DCode=24|XSize=1.4mm|YSize=1.7mm|CornerRadius=0.175mm|HoleSize=0mm|Usage=FLASHONLY|Rotation=270.000|XOffset=0mm|YOffset=0mm|HoleType=Round|Shape=RoundedRectangle|*
%AMROUNDEDRECTD24*
21,1,1.40000,1.35000,0,0,270.0*
21,1,1.05000,1.70000,0,0,270.0*
1,1,0.35000,-0.67500,-0.52500*
1,1,0.35000,-0.67500,0.52500*
1,1,0.35000,0.67500,0.52500*
1,1,0.35000,0.67500,-0.52500*
%
%ADD24ROUNDEDRECTD24*%
G04:AMPARAMS|DCode=25|XSize=0.93mm|YSize=1.31mm|CornerRadius=0.06975mm|HoleSize=0mm|Usage=FLASHONLY|Rotation=180.000|XOffset=0mm|YOffset=0mm|HoleType=Round|Shape=RoundedRectangle|*
%AMROUNDEDRECTD25*
21,1,0.93000,1.17050,0,0,180.0*
21,1,0.79050,1.31000,0,0,180.0*
1,1,0.13950,-0.39525,0.58525*
1,1,0.13950,0.39525,0.58525*
1,1,0.13950,0.39525,-0.58525*
1,1,0.13950,-0.39525,-0.58525*
%
%ADD25ROUNDEDRECTD25*%
%ADD26O,0.25000X0.80000*%
%TA.AperFunction,ConnectorPad*%
%ADD27R,0.65000X1.70000*%
%TA.AperFunction,SMDPad,CuDef*%
%ADD28R,0.35000X0.80000*%
%ADD29R,2.60000X2.70000*%
%ADD30R,0.85000X0.35000*%
%ADD31R,5.60000X5.60000*%
G04:AMPARAMS|DCode=32|XSize=0.8mm|YSize=1mm|CornerRadius=0.1mm|HoleSize=0mm|Usage=FLASHONLY|Rotation=0.000|XOffset=0mm|YOffset=0mm|HoleType=Round|Shape=RoundedRectangle|*
%AMROUNDEDRECTD32*
21,1,0.80000,0.80000,0,0,0.0*
21,1,0.60000,1.00000,0,0,0.0*
1,1,0.20000,0.30000,-0.40000*
1,1,0.20000,-0.30000,-0.40000*
1,1,0.20000,-0.30000,0.40000*
1,1,0.20000,0.30000,0.40000*
%
%ADD32ROUNDEDRECTD32*%
G04:AMPARAMS|DCode=33|XSize=0.8mm|YSize=1mm|CornerRadius=0.1mm|HoleSize=0mm|Usage=FLASHONLY|Rotation=90.000|XOffset=0mm|YOffset=0mm|HoleType=Round|Shape=RoundedRectangle|*
%AMROUNDEDRECTD33*
21,1,0.80000,0.80000,0,0,90.0*
21,1,0.60000,1.00000,0,0,90.0*
1,1,0.20000,0.40000,0.30000*
1,1,0.20000,0.40000,-0.30000*
1,1,0.20000,-0.40000,-0.30000*
1,1,0.20000,-0.40000,0.30000*
%
%ADD33ROUNDEDRECTD33*%
G04:AMPARAMS|DCode=34|XSize=3.24mm|YSize=1.31mm|CornerRadius=0.09825mm|HoleSize=0mm|Usage=FLASHONLY|Rotation=180.000|XOffset=0mm|YOffset=0mm|HoleType=Round|Shape=RoundedRectangle|*
%AMROUNDEDRECTD34*
21,1,3.24000,1.11350,0,0,180.0*
21,1,3.04350,1.31000,0,0,180.0*
1,1,0.19650,-1.52175,0.55675*
1,1,0.19650,1.52175,0.55675*
1,1,0.19650,1.52175,-0.55675*
1,1,0.19650,-1.52175,-0.55675*
%
%ADD34ROUNDEDRECTD34*%
%TA.AperFunction,ConnectorPad*%
%ADD35R,1.55000X1.42500*%
%ADD36R,1.90000X1.00000*%
%ADD37R,1.90000X1.80000*%
%ADD38R,1.30000X1.65000*%
%ADD39R,1.00000X2.90000*%
D17*
X9385000Y7195000D02*
D03*
Y7005000D02*
D03*
X9615000Y7195000D02*
D03*
Y7005000D02*
D03*
D19*
X11200000Y8750000D02*
D03*
X10925000Y7150000D02*
D03*
X10600000Y7050000D02*
D03*
X10150000Y8075000D02*
D03*
X9525000Y8150000D02*
D03*
X9700000Y7350000D02*
D03*
X9350000D02*
D03*
X9450000D02*
D03*
X9600000D02*
D03*
X11475000Y8750000D02*
D03*
X11300000Y8750000D02*
D03*
X11575000Y8750000D02*
D03*
X10550000Y8450000D02*
D03*
X10200000D02*
D03*
X10050000Y8075000D02*
D03*
X10700000Y7050000D02*
D03*
X9425000Y8150000D02*
D03*
X10300000Y8450000D02*
D03*
X10450000D02*
D03*
X11025000Y7150000D02*
D03*
D20*
X12100000Y7880000D02*
D03*
Y7620000D02*
D03*
Y7815000D02*
D03*
Y7750000D02*
D03*
Y7685000D02*
D03*
D21*
X10850000Y7800000D02*
D03*
X11871247Y7264654D02*
D03*
X11725000Y7262500D02*
D03*
X12200000Y6895000D02*
D03*
X9900000Y8325000D02*
D03*
X10275000Y8325000D02*
D03*
X9175000Y8550000D02*
D03*
Y8375000D02*
D03*
X9800000Y7700000D02*
D03*
X9850001Y7450000D02*
D03*
X10850000Y7900000D02*
D03*
X12195000Y6575000D02*
D03*
X9175000Y8650000D02*
D03*
X9850001Y7350000D02*
D03*
X9800000Y7800000D02*
D03*
X11871247Y7364654D02*
D03*
X10275000Y8225000D02*
D03*
X12200000Y6795000D02*
D03*
X12195000Y6675000D02*
D03*
X11725000Y7362500D02*
D03*
X9900000Y8425000D02*
D03*
X9175000Y8475000D02*
D03*
D22*
X10690000Y7775000D02*
D03*
X10010000Y7475000D02*
D03*
Y7625000D02*
D03*
Y7525000D02*
D03*
X10690000Y7825000D02*
D03*
X10010000D02*
D03*
Y7425000D02*
D03*
X10690000Y7725000D02*
D03*
Y7675000D02*
D03*
Y7625000D02*
D03*
Y7575000D02*
D03*
Y7525000D02*
D03*
Y7475000D02*
D03*
Y7425000D02*
D03*
Y7375000D02*
D03*
Y7325000D02*
D03*
Y7275000D02*
D03*
X10010000D02*
D03*
Y7325000D02*
D03*
Y7375000D02*
D03*
Y7575000D02*
D03*
Y7675000D02*
D03*
Y7725000D02*
D03*
Y7775000D02*
D03*
D23*
X11489300Y7100000D02*
D03*
X11260700D02*
D03*
D24*
X11900000Y6814300D02*
D03*
Y6585700D02*
D03*
D25*
X11621500Y6802000D02*
D03*
X11387500Y6805000D02*
D03*
X11163500Y6802000D02*
D03*
D26*
X10575000Y7210000D02*
D03*
X10125000Y7890000D02*
D03*
X10075000D02*
D03*
X10625000Y7210000D02*
D03*
Y7890000D02*
D03*
X10525000D02*
D03*
X10175000D02*
D03*
X10225000D02*
D03*
X10275000D02*
D03*
X10325000D02*
D03*
X10375000D02*
D03*
X10425000D02*
D03*
X10475000D02*
D03*
X10575000D02*
D03*
X10525000Y7210000D02*
D03*
X10475000D02*
D03*
X10425000D02*
D03*
X10375000D02*
D03*
X10325000D02*
D03*
X10275000D02*
D03*
X10225000D02*
D03*
X10175000D02*
D03*
X10125000D02*
D03*
X10075000D02*
D03*
D27*
X10475000Y6225000D02*
D03*
X9850000D02*
D03*
X9975000D02*
D03*
X10225000D02*
D03*
X10350000D02*
D03*
X10100000D02*
D03*
D28*
X9675000Y8300000D02*
D03*
Y8700000D02*
D03*
X9425000Y8300000D02*
D03*
X9475000D02*
D03*
X9525000D02*
D03*
X9575000D02*
D03*
X9625000D02*
D03*
X9425000Y8700000D02*
D03*
X9475000D02*
D03*
X9525000D02*
D03*
X9575000D02*
D03*
X9625000D02*
D03*
D29*
X9550000Y8500000D02*
D03*
D30*
X9352500Y8525000D02*
D03*
Y8425000D02*
D03*
Y8575000D02*
D03*
X9747500Y8475000D02*
D03*
Y8625000D02*
D03*
X9352500Y8375000D02*
D03*
X9747500Y8575000D02*
D03*
Y8375000D02*
D03*
Y8425000D02*
D03*
Y8525000D02*
D03*
X9352500Y8475000D02*
D03*
Y8625000D02*
D03*
D31*
X10350000Y7550000D02*
D03*
D32*
X10350000Y7000000D02*
D03*
X9525000Y7500000D02*
D03*
X11875000D02*
D03*
X10500000Y7000000D02*
D03*
X9675000Y7500000D02*
D03*
X10875000Y7325000D02*
D03*
X11725000Y7500000D02*
D03*
X11025000Y7325000D02*
D03*
D33*
X9650000Y7700000D02*
D03*
Y7850000D02*
D03*
D34*
X11392500Y6133000D02*
D03*
D35*
X12108500Y7998750D02*
D03*
Y7501250D02*
D03*
D36*
X12366000Y7905000D02*
D03*
D37*
Y7635000D02*
D03*
D38*
Y8087500D02*
D03*
Y7412500D02*
D03*
D39*
X9665000Y5945000D02*
D03*
X10660000D02*
D03*
%TF.MD5,5fec0bcf2d4086deb60d6b6df615083d*%
M02*
