%TF.GenerationSoftware,Altium Limited,Altium Designer,26.9.1 (10)*%
G04 Layer_Color=8388736*
G04 Board_Origin=0|0*
%FSLAX45Y45*%
%MOMM*%
%TF.SameCoordinates,4240BD10-6AC7-45DB-958D-C0A4B6E88BAE*%
%TF.FilePolarity,Negative*%
%TF.FileFunction,Soldermask,Top*%
%TF.Part,Single*%
G01*
G75*
%TA.AperFunction,ConnectorPad*%
%ADD20R,1.38000X0.45000*%
%ADD35R,1.55000X1.42500*%
%ADD36R,1.90000X1.00000*%
%ADD37R,1.90000X1.80000*%
%ADD38R,1.30000X1.65000*%
%TA.AperFunction,SMDPad,CuDef*%
G04:AMPARAMS|DCode=58|XSize=1.38mm|YSize=1.18mm|CornerRadius=0.095mm|HoleSize=0mm|Usage=FLASHONLY|Rotation=0.000|XOffset=0mm|YOffset=0mm|HoleType=Round|Shape=RoundedRectangle|*
%AMROUNDEDRECTD58*
21,1,1.38000,0.99000,0,0,0.0*
21,1,1.19000,1.18000,0,0,0.0*
1,1,0.19000,0.59500,-0.49500*
1,1,0.19000,-0.59500,-0.49500*
1,1,0.19000,-0.59500,0.49500*
1,1,0.19000,0.59500,0.49500*
%
%ADD58ROUNDEDRECTD58*%
%TA.AperFunction,BGAPad,CuDef*%
%ADD59C,0.94300*%
%TA.AperFunction,SMDPad,CuDef*%
G04:AMPARAMS|DCode=60|XSize=0.68mm|YSize=0.78mm|CornerRadius=0.115mm|HoleSize=0mm|Usage=FLASHONLY|Rotation=0.000|XOffset=0mm|YOffset=0mm|HoleType=Round|Shape=RoundedRectangle|*
%AMROUNDEDRECTD60*
21,1,0.68000,0.55000,0,0,0.0*
21,1,0.45000,0.78000,0,0,0.0*
1,1,0.23000,0.22500,-0.27500*
1,1,0.23000,-0.22500,-0.27500*
1,1,0.23000,-0.22500,0.27500*
1,1,0.23000,0.22500,0.27500*
%
%ADD60ROUNDEDRECTD60*%
G04:AMPARAMS|DCode=61|XSize=0.68mm|YSize=0.78mm|CornerRadius=0.115mm|HoleSize=0mm|Usage=FLASHONLY|Rotation=90.000|XOffset=0mm|YOffset=0mm|HoleType=Round|Shape=RoundedRectangle|*
%AMROUNDEDRECTD61*
21,1,0.68000,0.55000,0,0,90.0*
21,1,0.45000,0.78000,0,0,90.0*
1,1,0.23000,0.27500,0.22500*
1,1,0.23000,0.27500,-0.22500*
1,1,0.23000,-0.27500,-0.22500*
1,1,0.23000,-0.27500,0.22500*
%
%ADD61ROUNDEDRECTD61*%
%ADD62O,0.88000X0.33000*%
G04:AMPARAMS|DCode=63|XSize=1.48mm|YSize=1.78mm|CornerRadius=0.215mm|HoleSize=0mm|Usage=FLASHONLY|Rotation=180.000|XOffset=0mm|YOffset=0mm|HoleType=Round|Shape=RoundedRectangle|*
%AMROUNDEDRECTD63*
21,1,1.48000,1.35000,0,0,180.0*
21,1,1.05000,1.78000,0,0,180.0*
1,1,0.43000,-0.52500,0.67500*
1,1,0.43000,0.52500,0.67500*
1,1,0.43000,0.52500,-0.67500*
1,1,0.43000,-0.52500,-0.67500*
%
%ADD63ROUNDEDRECTD63*%
G04:AMPARAMS|DCode=64|XSize=1.48mm|YSize=1.78mm|CornerRadius=0.215mm|HoleSize=0mm|Usage=FLASHONLY|Rotation=270.000|XOffset=0mm|YOffset=0mm|HoleType=Round|Shape=RoundedRectangle|*
%AMROUNDEDRECTD64*
21,1,1.48000,1.35000,0,0,270.0*
21,1,1.05000,1.78000,0,0,270.0*
1,1,0.43000,-0.67500,-0.52500*
1,1,0.43000,-0.67500,0.52500*
1,1,0.43000,0.67500,0.52500*
1,1,0.43000,0.67500,-0.52500*
%
%ADD64ROUNDEDRECTD64*%
G04:AMPARAMS|DCode=65|XSize=1.01mm|YSize=1.39mm|CornerRadius=0.10975mm|HoleSize=0mm|Usage=FLASHONLY|Rotation=180.000|XOffset=0mm|YOffset=0mm|HoleType=Round|Shape=RoundedRectangle|*
%AMROUNDEDRECTD65*
21,1,1.01000,1.17050,0,0,180.0*
21,1,0.79050,1.39000,0,0,180.0*
1,1,0.21950,-0.39525,0.58525*
1,1,0.21950,0.39525,0.58525*
1,1,0.21950,0.39525,-0.58525*
1,1,0.21950,-0.39525,-0.58525*
%
%ADD65ROUNDEDRECTD65*%
%ADD66O,0.33000X0.88000*%
%TA.AperFunction,ConnectorPad*%
%ADD67R,0.73000X1.78000*%
%TA.AperFunction,SMDPad,CuDef*%
%ADD68R,0.43000X0.88000*%
%ADD69R,2.68000X2.78000*%
%ADD70R,1.05320X0.55320*%
%ADD71R,5.68000X5.68000*%
G04:AMPARAMS|DCode=72|XSize=0.88mm|YSize=1.08mm|CornerRadius=0.14mm|HoleSize=0mm|Usage=FLASHONLY|Rotation=0.000|XOffset=0mm|YOffset=0mm|HoleType=Round|Shape=RoundedRectangle|*
%AMROUNDEDRECTD72*
21,1,0.88000,0.80000,0,0,0.0*
21,1,0.60000,1.08000,0,0,0.0*
1,1,0.28000,0.30000,-0.40000*
1,1,0.28000,-0.30000,-0.40000*
1,1,0.28000,-0.30000,0.40000*
1,1,0.28000,0.30000,0.40000*
%
%ADD72ROUNDEDRECTD72*%
G04:AMPARAMS|DCode=73|XSize=0.88mm|YSize=1.08mm|CornerRadius=0.14mm|HoleSize=0mm|Usage=FLASHONLY|Rotation=90.000|XOffset=0mm|YOffset=0mm|HoleType=Round|Shape=RoundedRectangle|*
%AMROUNDEDRECTD73*
21,1,0.88000,0.80000,0,0,90.0*
21,1,0.60000,1.08000,0,0,90.0*
1,1,0.28000,0.40000,0.30000*
1,1,0.28000,0.40000,-0.30000*
1,1,0.28000,-0.40000,-0.30000*
1,1,0.28000,-0.40000,0.30000*
%
%ADD73ROUNDEDRECTD73*%
G04:AMPARAMS|DCode=74|XSize=3.32mm|YSize=1.39mm|CornerRadius=0.13825mm|HoleSize=0mm|Usage=FLASHONLY|Rotation=180.000|XOffset=0mm|YOffset=0mm|HoleType=Round|Shape=RoundedRectangle|*
%AMROUNDEDRECTD74*
21,1,3.32000,1.11350,0,0,180.0*
21,1,3.04350,1.39000,0,0,180.0*
1,1,0.27650,-1.52175,0.55675*
1,1,0.27650,1.52175,0.55675*
1,1,0.27650,1.52175,-0.55675*
1,1,0.27650,-1.52175,-0.55675*
%
%ADD74ROUNDEDRECTD74*%
%TA.AperFunction,ConnectorPad*%
%ADD75R,1.08000X2.98000*%
%TA.AperFunction,ViaPad*%
%ADD76C,1.20500*%
%ADD77C,2.08000*%
%TA.AperFunction,ComponentPad*%
%ADD78C,1.14700*%
%TA.AperFunction,ViaPad*%
%ADD79C,0.78000*%
%ADD80C,0.68000*%
%ADD81C,0.58000*%
D20*
X12100000Y7880000D02*
D03*
Y7620000D02*
D03*
Y7815000D02*
D03*
Y7750000D02*
D03*
Y7685000D02*
D03*
D35*
X12108500Y7998750D02*
D03*
Y7501250D02*
D03*
D36*
X12366000Y7905000D02*
D03*
D37*
Y7635000D02*
D03*
D38*
Y8087500D02*
D03*
Y7412500D02*
D03*
D58*
X9385000Y7195000D02*
D03*
Y7005000D02*
D03*
X9615000Y7195000D02*
D03*
Y7005000D02*
D03*
D59*
X11346000Y8527000D02*
D03*
Y8400000D02*
D03*
X11473000D02*
D03*
X11600000D02*
D03*
X11473000Y8527000D02*
D03*
X11600000D02*
D03*
D60*
X11200000Y8750000D02*
D03*
X10925000Y7150000D02*
D03*
X10600000Y7050000D02*
D03*
X10150000Y8075000D02*
D03*
X9525000Y8150000D02*
D03*
X9700000Y7350000D02*
D03*
X9350000D02*
D03*
X9450000D02*
D03*
X9600000D02*
D03*
X11475000Y8750000D02*
D03*
X11300000Y8750000D02*
D03*
X11575000Y8750000D02*
D03*
X10550000Y8450000D02*
D03*
X10200000D02*
D03*
X10050000Y8075000D02*
D03*
X10700000Y7050000D02*
D03*
X9425000Y8150000D02*
D03*
X10300000Y8450000D02*
D03*
X10450000D02*
D03*
X11025000Y7150000D02*
D03*
D61*
X10850000Y7800000D02*
D03*
X11871247Y7264654D02*
D03*
X11725000Y7262500D02*
D03*
X12200000Y6895000D02*
D03*
X9900000Y8325000D02*
D03*
X10275000Y8325000D02*
D03*
X9175000Y8550000D02*
D03*
Y8375000D02*
D03*
X9800000Y7700000D02*
D03*
X9850001Y7450000D02*
D03*
X10850000Y7900000D02*
D03*
X12195000Y6575000D02*
D03*
X9175000Y8650000D02*
D03*
X9850001Y7350000D02*
D03*
X9800000Y7800000D02*
D03*
X11871247Y7364654D02*
D03*
X10275000Y8225000D02*
D03*
X12200000Y6795000D02*
D03*
X12195000Y6675000D02*
D03*
X11725000Y7362500D02*
D03*
X9900000Y8425000D02*
D03*
X9175000Y8475000D02*
D03*
D62*
X10690000Y7775000D02*
D03*
X10010000Y7475000D02*
D03*
Y7625000D02*
D03*
Y7525000D02*
D03*
X10690000Y7825000D02*
D03*
X10010000D02*
D03*
Y7425000D02*
D03*
X10690000Y7725000D02*
D03*
Y7675000D02*
D03*
Y7625000D02*
D03*
Y7575000D02*
D03*
Y7525000D02*
D03*
Y7475000D02*
D03*
Y7425000D02*
D03*
Y7375000D02*
D03*
Y7325000D02*
D03*
Y7275000D02*
D03*
X10010000D02*
D03*
Y7325000D02*
D03*
Y7375000D02*
D03*
Y7575000D02*
D03*
Y7675000D02*
D03*
Y7725000D02*
D03*
Y7775000D02*
D03*
D63*
X11489300Y7100000D02*
D03*
X11260700D02*
D03*
D64*
X11900000Y6814300D02*
D03*
Y6585700D02*
D03*
D65*
X11621500Y6802000D02*
D03*
X11387500Y6805000D02*
D03*
X11163500Y6802000D02*
D03*
D66*
X10575000Y7210000D02*
D03*
X10125000Y7890000D02*
D03*
X10075000D02*
D03*
X10625000Y7210000D02*
D03*
Y7890000D02*
D03*
X10525000D02*
D03*
X10175000D02*
D03*
X10225000D02*
D03*
X10275000D02*
D03*
X10325000D02*
D03*
X10375000D02*
D03*
X10425000D02*
D03*
X10475000D02*
D03*
X10575000D02*
D03*
X10525000Y7210000D02*
D03*
X10475000D02*
D03*
X10425000D02*
D03*
X10375000D02*
D03*
X10325000D02*
D03*
X10275000D02*
D03*
X10225000D02*
D03*
X10175000D02*
D03*
X10125000D02*
D03*
X10075000D02*
D03*
D67*
X10475000Y6225000D02*
D03*
X9850000D02*
D03*
X9975000D02*
D03*
X10225000D02*
D03*
X10350000D02*
D03*
X10100000D02*
D03*
D68*
X9675000Y8300000D02*
D03*
Y8700000D02*
D03*
X9425000Y8300000D02*
D03*
X9475000D02*
D03*
X9525000D02*
D03*
X9575000D02*
D03*
X9625000D02*
D03*
X9425000Y8700000D02*
D03*
X9475000D02*
D03*
X9525000D02*
D03*
X9575000D02*
D03*
X9625000D02*
D03*
D69*
X9550000Y8500000D02*
D03*
D70*
X9352500Y8525000D02*
D03*
Y8425000D02*
D03*
Y8575000D02*
D03*
X9747500Y8475000D02*
D03*
Y8625000D02*
D03*
X9352500Y8375000D02*
D03*
X9747500Y8575000D02*
D03*
Y8375000D02*
D03*
Y8425000D02*
D03*
Y8525000D02*
D03*
X9352500Y8475000D02*
D03*
Y8625000D02*
D03*
D71*
X10350000Y7550000D02*
D03*
D72*
X10350000Y7000000D02*
D03*
X9525000Y7500000D02*
D03*
X11875000D02*
D03*
X10500000Y7000000D02*
D03*
X9675000Y7500000D02*
D03*
X10875000Y7325000D02*
D03*
X11725000Y7500000D02*
D03*
X11025000Y7325000D02*
D03*
D73*
X9650000Y7700000D02*
D03*
Y7850000D02*
D03*
D74*
X11392500Y6133000D02*
D03*
D75*
X9665000Y5945000D02*
D03*
X10660000D02*
D03*
D76*
X12483545Y8572129D02*
D03*
X8875000Y6225000D02*
D03*
D77*
X12425000Y8800000D02*
D03*
Y5950000D02*
D03*
X8950000D02*
D03*
Y8789853D02*
D03*
D78*
X11219000Y8565100D02*
D03*
Y8361900D02*
D03*
X11727000Y8463500D02*
D03*
D79*
X9752361Y7423163D02*
D03*
X11140067Y8734933D02*
D03*
X10944995Y8745000D02*
D03*
X11350000Y8600000D02*
D03*
X9900000Y8745000D02*
D03*
X11450000Y7975000D02*
D03*
X11150000D02*
D03*
X9250000Y7200000D02*
D03*
Y7350000D02*
D03*
X9625000Y8125000D02*
D03*
X11925000Y7875000D02*
D03*
X12221000D02*
D03*
X10925000Y7800000D02*
D03*
X11871247Y7185340D02*
D03*
X12200000Y6975000D02*
D03*
X11725000Y7175000D02*
D03*
X11614300Y7100000D02*
D03*
X11900000Y6925000D02*
D03*
X11625000D02*
D03*
X10850000Y7150000D02*
D03*
X10600000Y6950000D02*
D03*
X10400000Y6900000D02*
D03*
X10475000Y6075000D02*
D03*
X9975000Y8325000D02*
D03*
X10200000D02*
D03*
X10150000Y8125000D02*
D03*
X9675000Y8200000D02*
D03*
X9098916Y8547394D02*
D03*
X9100000Y8375000D02*
D03*
X9550000Y7725000D02*
D03*
X9750000Y7275000D02*
D03*
X9725000Y7000000D02*
D03*
X10825000Y5975000D02*
D03*
X10375000D02*
D03*
X9430000Y7875000D02*
D03*
X9352500Y8050000D02*
D03*
X10435356Y8525000D02*
D03*
X10100000D02*
D03*
D80*
X9770001Y7506412D02*
D03*
D81*
X10460000Y7770000D02*
D03*
X10350000D02*
D03*
X10570000D02*
D03*
X10350000Y7660000D02*
D03*
X10570000D02*
D03*
Y7550000D02*
D03*
X10460000Y7440000D02*
D03*
X10570000D02*
D03*
X10460000Y7330000D02*
D03*
Y7660000D02*
D03*
Y7550000D02*
D03*
X10350000D02*
D03*
Y7330000D02*
D03*
Y7440000D02*
D03*
X10570000Y7330000D02*
D03*
X9605000Y8555000D02*
D03*
X9495000D02*
D03*
Y8445000D02*
D03*
X9605000D02*
D03*
X10240000Y7770000D02*
D03*
Y7660000D02*
D03*
X10130000Y7770000D02*
D03*
Y7660000D02*
D03*
Y7550000D02*
D03*
X10240000D02*
D03*
Y7440000D02*
D03*
X10130000Y7330000D02*
D03*
X10240000D02*
D03*
X10130000Y7440000D02*
D03*
%TF.MD5,dfa7b0217e6dfc00e6c073937c519c5a*%
M02*
