%TF.GenerationSoftware,Altium Limited,Altium Designer,26.9.1 (10)*%
G04 Layer_Physical_Order=1*
G04 Layer_Color=255*
G04 Board_Origin=0|0*
%FSLAX45Y45*%
%MOMM*%
%TF.SameCoordinates,4240BD10-6AC7-45DB-958D-C0A4B6E88BAE*%
%TF.FilePolarity,Positive*%
%TF.FileFunction,Copper,L1,Top,Signal*%
%TF.Part,Single*%
G01*
G75*
%TA.AperFunction,Conductor*%
%ADD10C,0.45000*%
%ADD11C,0.35001*%
%ADD12C,0.35000*%
%ADD13C,0.40000*%
%ADD14C,0.50000*%
%ADD15C,0.25000*%
%ADD16C,0.70000*%
%TA.AperFunction,SMDPad,CuDef*%
G04:AMPARAMS|DCode=17|XSize=1.3mm|YSize=1.1mm|CornerRadius=0.055mm|HoleSize=0mm|Usage=FLASHONLY|Rotation=0.000|XOffset=0mm|YOffset=0mm|HoleType=Round|Shape=RoundedRectangle|*
%AMROUNDEDRECTD17*
21,1,1.30000,0.99000,0,0,0.0*
21,1,1.19000,1.10000,0,0,0.0*
1,1,0.11000,0.59500,-0.49500*
1,1,0.11000,-0.59500,-0.49500*
1,1,0.11000,-0.59500,0.49500*
1,1,0.11000,0.59500,0.49500*
%
%ADD17ROUNDEDRECTD17*%
%TA.AperFunction,BGAPad,CuDef*%
%ADD18C,0.86300*%
%TA.AperFunction,SMDPad,CuDef*%
G04:AMPARAMS|DCode=19|XSize=0.6mm|YSize=0.7mm|CornerRadius=0.075mm|HoleSize=0mm|Usage=FLASHONLY|Rotation=0.000|XOffset=0mm|YOffset=0mm|HoleType=Round|Shape=RoundedRectangle|*
%AMROUNDEDRECTD19*
21,1,0.60000,0.55000,0,0,0.0*
21,1,0.45000,0.70000,0,0,0.0*
1,1,0.15000,0.22500,-0.27500*
1,1,0.15000,-0.22500,-0.27500*
1,1,0.15000,-0.22500,0.27500*
1,1,0.15000,0.22500,0.27500*
%
%ADD19ROUNDEDRECTD19*%
%TA.AperFunction,ConnectorPad*%
%ADD20R,1.38000X0.45000*%
%TA.AperFunction,SMDPad,CuDef*%
G04:AMPARAMS|DCode=21|XSize=0.6mm|YSize=0.7mm|CornerRadius=0.075mm|HoleSize=0mm|Usage=FLASHONLY|Rotation=90.000|XOffset=0mm|YOffset=0mm|HoleType=Round|Shape=RoundedRectangle|*
%AMROUNDEDRECTD21*
21,1,0.60000,0.55000,0,0,90.0*
21,1,0.45000,0.70000,0,0,90.0*
1,1,0.15000,0.27500,0.22500*
1,1,0.15000,0.27500,-0.22500*
1,1,0.15000,-0.27500,-0.22500*
1,1,0.15000,-0.27500,0.22500*
%
%ADD21ROUNDEDRECTD21*%
%ADD22O,0.80000X0.25000*%
G04:AMPARAMS|DCode=23|XSize=1.4mm|YSize=1.7mm|CornerRadius=0.175mm|HoleSize=0mm|Usage=FLASHONLY|Rotation=180.000|XOffset=0mm|YOffset=0mm|HoleType=Round|Shape=RoundedRectangle|*
%AMROUNDEDRECTD23*
21,1,1.40000,1.35000,0,0,180.0*
21,1,1.05000,1.70000,0,0,180.0*
1,1,0.35000,-0.52500,0.67500*
1,1,0.35000,0.52500,0.67500*
1,1,0.35000,0.52500,-0.67500*
1,1,0.35000,-0.52500,-0.67500*
%
%ADD23ROUNDEDRECTD23*%
G04:AMPARAMS|DCode=24|XSize=1.4mm|YSize=1.7mm|CornerRadius=0.175mm|HoleSize=0mm|Usage=FLASHONLY|Rotation=270.000|XOffset=0mm|YOffset=0mm|HoleType=Round|Shape=RoundedRectangle|*
%AMROUNDEDRECTD24*
21,1,1.40000,1.35000,0,0,270.0*
21,1,1.05000,1.70000,0,0,270.0*
1,1,0.35000,-0.67500,-0.52500*
1,1,0.35000,-0.67500,0.52500*
1,1,0.35000,0.67500,0.52500*
1,1,0.35000,0.67500,-0.52500*
%
%ADD24ROUNDEDRECTD24*%
G04:AMPARAMS|DCode=25|XSize=0.93mm|YSize=1.31mm|CornerRadius=0.06975mm|HoleSize=0mm|Usage=FLASHONLY|Rotation=180.000|XOffset=0mm|YOffset=0mm|HoleType=Round|Shape=RoundedRectangle|*
%AMROUNDEDRECTD25*
21,1,0.93000,1.17050,0,0,180.0*
21,1,0.79050,1.31000,0,0,180.0*
1,1,0.13950,-0.39525,0.58525*
1,1,0.13950,0.39525,0.58525*
1,1,0.13950,0.39525,-0.58525*
1,1,0.13950,-0.39525,-0.58525*
%
%ADD25ROUNDEDRECTD25*%
%ADD26O,0.25000X0.80000*%
%TA.AperFunction,ConnectorPad*%
%ADD27R,0.65000X1.70000*%
%TA.AperFunction,SMDPad,CuDef*%
%ADD28R,0.35000X0.80000*%
%ADD29R,2.60000X2.70000*%
%ADD30R,0.85000X0.35000*%
%ADD31R,5.60000X5.60000*%
G04:AMPARAMS|DCode=32|XSize=0.8mm|YSize=1mm|CornerRadius=0.1mm|HoleSize=0mm|Usage=FLASHONLY|Rotation=0.000|XOffset=0mm|YOffset=0mm|HoleType=Round|Shape=RoundedRectangle|*
%AMROUNDEDRECTD32*
21,1,0.80000,0.80000,0,0,0.0*
21,1,0.60000,1.00000,0,0,0.0*
1,1,0.20000,0.30000,-0.40000*
1,1,0.20000,-0.30000,-0.40000*
1,1,0.20000,-0.30000,0.40000*
1,1,0.20000,0.30000,0.40000*
%
%ADD32ROUNDEDRECTD32*%
G04:AMPARAMS|DCode=33|XSize=0.8mm|YSize=1mm|CornerRadius=0.1mm|HoleSize=0mm|Usage=FLASHONLY|Rotation=90.000|XOffset=0mm|YOffset=0mm|HoleType=Round|Shape=RoundedRectangle|*
%AMROUNDEDRECTD33*
21,1,0.80000,0.80000,0,0,90.0*
21,1,0.60000,1.00000,0,0,90.0*
1,1,0.20000,0.40000,0.30000*
1,1,0.20000,0.40000,-0.30000*
1,1,0.20000,-0.40000,-0.30000*
1,1,0.20000,-0.40000,0.30000*
%
%ADD33ROUNDEDRECTD33*%
G04:AMPARAMS|DCode=34|XSize=3.24mm|YSize=1.31mm|CornerRadius=0.09825mm|HoleSize=0mm|Usage=FLASHONLY|Rotation=180.000|XOffset=0mm|YOffset=0mm|HoleType=Round|Shape=RoundedRectangle|*
%AMROUNDEDRECTD34*
21,1,3.24000,1.11350,0,0,180.0*
21,1,3.04350,1.31000,0,0,180.0*
1,1,0.19650,-1.52175,0.55675*
1,1,0.19650,1.52175,0.55675*
1,1,0.19650,1.52175,-0.55675*
1,1,0.19650,-1.52175,-0.55675*
%
%ADD34ROUNDEDRECTD34*%
%TA.AperFunction,ConnectorPad*%
%ADD35R,1.55000X1.42500*%
%ADD36R,1.90000X1.00000*%
%ADD37R,1.90000X1.80000*%
%ADD38R,1.30000X1.65000*%
%ADD39R,1.00000X2.90000*%
%TA.AperFunction,Conductor*%
%ADD40C,0.20000*%
%ADD41C,0.60000*%
%ADD42C,0.24999*%
%ADD43C,0.30000*%
%ADD44C,0.26100*%
%TA.AperFunction,ViaPad*%
%ADD45C,1.12500*%
%ADD46C,2.00000*%
%TA.AperFunction,ComponentPad*%
%ADD47C,1.06700*%
%TA.AperFunction,ViaPad*%
%ADD48C,0.80000*%
%ADD49C,0.70000*%
%ADD50C,0.60000*%
%ADD51C,0.50000*%
G36*
X11775000Y7570000D02*
Y7320000D01*
X11675000D01*
X11670000Y7315000D01*
X11627991Y7357009D01*
X11402500Y7197500D01*
X11247104Y6914842D01*
X11202500Y6727500D01*
X11121423D01*
Y7066423D01*
X11225000Y7224819D01*
X11292319D01*
X11526250Y7458750D01*
X11640000D01*
Y7572500D01*
X11773965D01*
X11775000Y7570000D01*
D02*
G37*
G36*
X12184000Y7647500D02*
X12195736Y7639620D01*
X12196194Y7639161D01*
X12200000Y7629973D01*
Y7590322D01*
X12198858Y7587565D01*
X12198793Y7587500D01*
X12016000D01*
Y7584314D01*
X11935000D01*
X11935000D01*
X11927500Y7576814D01*
Y7576814D01*
Y7320517D01*
X11927500Y7320517D01*
Y7309314D01*
X11922500Y7304314D01*
X11913564D01*
X11907526Y7308349D01*
X11898747Y7310095D01*
X11843747D01*
X11834969Y7308349D01*
X11820000Y7315893D01*
Y7634314D01*
X11825000Y7639314D01*
X12014315D01*
X12016399Y7639519D01*
X12020251Y7641115D01*
X12023199Y7644063D01*
X12024623Y7647500D01*
X12184000D01*
D02*
G37*
G36*
X11810965Y7303400D02*
X11812693Y7301395D01*
X11827661Y7293850D01*
X11832942Y7293458D01*
X11838136Y7292425D01*
X11838773Y7292551D01*
X11847587Y7279360D01*
X11847665Y7278859D01*
X11845343Y7275384D01*
X11843208Y7264654D01*
Y7185340D01*
X11845343Y7174610D01*
X11851421Y7165514D01*
X11860517Y7159436D01*
X11871247Y7157301D01*
X11881977Y7159436D01*
X11891073Y7165514D01*
X11897151Y7174610D01*
X11899286Y7185340D01*
Y7264653D01*
X11899286Y7264654D01*
X11897151Y7275384D01*
X11894830Y7278859D01*
X11894939Y7279565D01*
X11895587Y7280964D01*
X11903644Y7289825D01*
X11904934Y7290737D01*
X11909189Y7289890D01*
X11913564Y7288078D01*
X11922500D01*
X11933537Y7280703D01*
Y7100000D01*
X11934498Y7090245D01*
X11941963Y7072221D01*
X11955758Y7058427D01*
X11973782Y7050961D01*
X11983537Y7050000D01*
X12275000D01*
Y6850000D01*
X12221392D01*
X12213440Y6863900D01*
X12213602Y6865000D01*
X12223432Y6871568D01*
X12230615Y6882319D01*
X12233137Y6895000D01*
Y6975000D01*
X12230615Y6987681D01*
X12223432Y6998432D01*
X12212681Y7005615D01*
X12200000Y7008137D01*
X12187319Y7005615D01*
X12176568Y6998432D01*
X12169385Y6987681D01*
X12166863Y6975000D01*
Y6895000D01*
X12169385Y6882319D01*
X12176568Y6871568D01*
X12186398Y6865000D01*
X12186560Y6863900D01*
X12178608Y6850000D01*
X12020000D01*
X12016098Y6849616D01*
X12008888Y6846629D01*
X12003370Y6841111D01*
X12000384Y6833902D01*
X12000000Y6830000D01*
Y6722513D01*
X11998097Y6717919D01*
X11994580Y6714403D01*
X11989986Y6712500D01*
X11550000D01*
Y6975000D01*
X11549519Y6979877D01*
X11545787Y6988889D01*
X11538889Y6995787D01*
X11529877Y6999519D01*
X11525000Y7000000D01*
X11407935D01*
X11405441Y7001033D01*
X11403533Y7002941D01*
X11402500Y7005435D01*
Y7163799D01*
X11414927Y7186403D01*
X11430614Y7197500D01*
X11623000D01*
X11628072Y7197999D01*
X11637443Y7201881D01*
X11644615Y7209053D01*
X11648496Y7218424D01*
X11648996Y7223495D01*
Y7292464D01*
X11650527Y7294242D01*
X11663996Y7301251D01*
X11670000Y7298764D01*
X11681481Y7303520D01*
X11681725Y7303764D01*
X11714603D01*
X11716080Y7288764D01*
X11714270Y7288404D01*
X11705174Y7282326D01*
X11699096Y7273230D01*
X11696961Y7262500D01*
Y7175000D01*
X11699096Y7164270D01*
X11705174Y7155174D01*
X11714270Y7149096D01*
X11725000Y7146961D01*
X11735730Y7149096D01*
X11744826Y7155174D01*
X11750904Y7164270D01*
X11753038Y7175000D01*
Y7262500D01*
X11750904Y7273230D01*
X11744826Y7282326D01*
X11735730Y7288404D01*
X11733919Y7288764D01*
X11735397Y7303764D01*
X11775000D01*
X11776328Y7304314D01*
X11808758D01*
X11810965Y7303400D01*
D02*
G37*
G36*
X11340000Y6890000D02*
X11447500D01*
Y6712500D01*
X11505000Y6655000D01*
X12027500D01*
Y6603039D01*
X11936522D01*
X11928838Y6614538D01*
X11915607Y6623379D01*
X11900000Y6626483D01*
X11884393Y6623379D01*
X11871162Y6614538D01*
X11862321Y6601307D01*
X11859217Y6585700D01*
Y6500000D01*
X11775000D01*
Y6367500D01*
X11584986Y6177487D01*
X11569987Y6183700D01*
Y6188675D01*
X11568060Y6198361D01*
X11562573Y6206573D01*
X11554361Y6212060D01*
X11544675Y6213986D01*
X11267700D01*
X11261486Y6228986D01*
X11307500Y6275000D01*
Y6867500D01*
X11335000Y6895000D01*
X11340000Y6890000D01*
D02*
G37*
%LPC*%
G36*
X11871247Y7400340D02*
X11857591Y7397624D01*
X11846013Y7389888D01*
X11838278Y7378311D01*
X11835561Y7364655D01*
X11838278Y7350998D01*
X11846013Y7339421D01*
X11857591Y7331685D01*
X11871247Y7328969D01*
X11875507Y7329816D01*
X11884904Y7331685D01*
X11896481Y7339421D01*
X11904216Y7350998D01*
X11906933Y7364654D01*
X11904216Y7378311D01*
X11896481Y7389888D01*
X11884903Y7397624D01*
X11871247Y7400340D01*
D02*
G37*
G36*
X11614300Y7128039D02*
X11489300D01*
X11478570Y7125904D01*
X11469474Y7119826D01*
X11463396Y7110730D01*
X11461262Y7100000D01*
X11463396Y7089270D01*
X11469474Y7080174D01*
X11478570Y7074096D01*
X11489300Y7071961D01*
X11614300D01*
X11625030Y7074096D01*
X11634126Y7080174D01*
X11640204Y7089270D01*
X11642339Y7100000D01*
X11640204Y7110730D01*
X11634126Y7119826D01*
X11625030Y7125904D01*
X11614300Y7128039D01*
D02*
G37*
G36*
X11900000Y6958137D02*
X11887319Y6955615D01*
X11876568Y6948432D01*
X11869385Y6937681D01*
X11866863Y6925000D01*
Y6814300D01*
X11869385Y6801618D01*
X11876568Y6790868D01*
X11887319Y6783685D01*
X11900000Y6781162D01*
X11912681Y6783685D01*
X11923432Y6790868D01*
X11930615Y6801618D01*
X11933137Y6814300D01*
Y6925000D01*
X11930615Y6937681D01*
X11923432Y6948432D01*
X11912681Y6955615D01*
X11900000Y6958137D01*
D02*
G37*
G36*
X11625000D02*
X11612319Y6955615D01*
X11601568Y6948432D01*
X11594385Y6937681D01*
X11591863Y6925000D01*
Y6816144D01*
X11590885Y6814681D01*
X11588363Y6802000D01*
X11588732Y6800146D01*
X11588612Y6800000D01*
X11590885Y6789319D01*
X11592685Y6786625D01*
X11596544Y6780849D01*
X11598684Y6775684D01*
X11608423Y6771649D01*
X11608819Y6771385D01*
X11609583Y6771080D01*
X11610078Y6770882D01*
X11612319Y6769384D01*
X11623001Y6765611D01*
X11625000Y6766863D01*
X11637681Y6769385D01*
X11648432Y6776568D01*
X11655615Y6787319D01*
X11658137Y6800000D01*
X11658177D01*
X11658137Y6800197D01*
Y6925000D01*
X11655615Y6937681D01*
X11648432Y6948432D01*
X11637681Y6955615D01*
X11625000Y6958137D01*
D02*
G37*
%LPD*%
D10*
X11475000Y8000000D02*
G03*
X11450000Y7975000I0J-25000D01*
G01*
X11975000Y8725000D02*
X12025000Y8675000D01*
Y8350000D02*
Y8675000D01*
X11776250Y8101250D02*
X12025000Y8350000D01*
X11776250Y8026360D02*
Y8101250D01*
X11749890Y8000000D02*
X11776250Y8026360D01*
X11475000Y8000000D02*
X11749890D01*
X11025000Y7975000D02*
X11150000D01*
X10975000Y7925000D02*
X11025000Y7975000D01*
D11*
X12225000Y7875000D02*
G03*
X12220000Y7880000I-5000J0D01*
G01*
X12095000Y7875000D02*
G03*
X12100000Y7880000I0J5000D01*
G01*
X11625000Y6800000D02*
G03*
X11623000Y6802000I-2000J0D01*
G01*
X9750000Y7300000D02*
G03*
X9700000Y7350000I-50000J0D01*
G01*
X9725000Y7000000D02*
G03*
X9720000Y7005000I-5000J0D01*
G01*
X10950000Y7900000D02*
X10975000Y7925000D01*
X10850000Y7900000D02*
X10950000D01*
X9382500Y7197500D02*
X9385000Y7195000D01*
X9252500Y7197500D02*
X9382500D01*
X9250000Y7200000D02*
X9252500Y7197500D01*
X9250000Y7350000D02*
X9350000D01*
X12100000Y7880000D02*
X12220000D01*
X12221000Y7875000D02*
X12225000D01*
X11925000D02*
X12095000D01*
X10850000Y7800000D02*
X10925000D01*
Y7800000D02*
Y7800000D01*
X10837501Y7787501D02*
X10850000Y7800000D01*
X10788770Y7787501D02*
X10837501D01*
X10776269Y7775000D02*
X10788770Y7787501D01*
X10748825Y7775000D02*
X10776269D01*
X12200000Y6895000D02*
Y6975000D01*
X11900000Y6814300D02*
Y6925000D01*
X11621500Y6802000D02*
X11623000D01*
X11625000Y6800000D02*
Y6925000D01*
X10475000Y6075000D02*
Y6225000D01*
X9750000Y7275000D02*
Y7300000D01*
X9615000Y7005000D02*
X9720000D01*
X10845000Y7900000D02*
X10850000D01*
X10790986Y7867501D02*
X10812500D01*
X10845000Y7900000D01*
X10753487Y7830001D02*
X10790986Y7867501D01*
X10748485Y7830001D02*
X10753487D01*
D12*
X10350000Y6950000D02*
G03*
X10400000Y6900000I50000J0D01*
G01*
X9761833Y7423163D02*
X9776170Y7437500D01*
X9837501D01*
X9752361Y7423163D02*
X9761833D01*
X9837501Y7437500D02*
X9850001Y7450000D01*
X11575000Y8852404D02*
X11847596D01*
X11975000Y8725000D01*
X11575000Y8750000D02*
Y8852404D01*
X11427404D02*
X11575000D01*
X10550000Y8450000D02*
Y8625000D01*
X9675000Y8700000D02*
X9845529D01*
X9890529Y8745000D02*
X9900000D01*
X9845529Y8700000D02*
X9890529Y8745000D01*
X10587501Y7062500D02*
Y7103536D01*
X10570000Y7121037D02*
X10587501Y7103536D01*
X10570000Y7121037D02*
Y7148981D01*
X10600000Y6950000D02*
Y7050000D01*
X10600000Y6950000D02*
X10600000D01*
X10587501Y7062500D02*
X10600000Y7050000D01*
X10350000Y6950000D02*
Y7000000D01*
X10150000Y8075000D02*
Y8125000D01*
X9675000Y8200000D02*
Y8300000D01*
X10150000Y7967671D02*
Y8075000D01*
X10550000Y8625000D02*
X10550000Y8625000D01*
X10712501Y7032500D02*
X10800000Y6950000D01*
X10667500Y7087500D02*
X10700000Y7055000D01*
Y7050000D02*
X10712501Y7032500D01*
X10667500Y7087500D02*
Y7101318D01*
X10625000Y7143818D02*
X10667500Y7101318D01*
X9743077Y8108569D02*
X9825000Y8190492D01*
X9175000Y8650000D02*
Y8725000D01*
X9025000Y8650000D02*
X9175000D01*
X8950000Y8575000D02*
X9025000Y8650000D01*
X8950000Y8525000D02*
Y8575000D01*
D13*
X9550000Y7725000D02*
G03*
X9575000Y7700000I25000J0D01*
G01*
X9650000D02*
X9650000Y7700000D01*
X9800000D01*
X9575000Y7700000D02*
X9650000D01*
X9743077Y8064645D02*
Y8108569D01*
X9650000Y7850000D02*
X9750000D01*
X9800000Y7800000D02*
X9855001D01*
X9795000Y7800000D02*
X9800000D01*
X9785000Y7810000D02*
X9795000Y7800000D01*
X9800000D02*
X9800000Y7800000D01*
X9750000Y7850000D02*
X9785000Y7815000D01*
Y7810000D02*
Y7815000D01*
X9842176Y7350000D02*
X9900000D01*
X11871247Y7364655D02*
X11871247Y7364654D01*
X12197500Y6792500D02*
X12200000Y6795000D01*
X12197500Y6677500D02*
Y6792500D01*
X12195000Y6675000D02*
X12197500Y6677500D01*
D14*
X11646000Y5975000D02*
G03*
X11900000Y6229000I0J254000D01*
G01*
X9278496Y6589647D02*
G03*
X9278499Y6589643I35359J35352D01*
G01*
X9152031Y6797329D02*
G03*
X9187310Y6703921I163362J8332D01*
G01*
X11348000Y8529000D02*
Y8598000D01*
X11350000Y8600000D01*
X11150000Y8750000D02*
X11200000D01*
X9100219Y8548697D02*
X9173697D01*
X9100000Y8375000D02*
X9175000D01*
X10800000Y6950000D02*
X10825000Y6922500D01*
X11900000Y6229000D02*
Y6585700D01*
X10875000Y5975000D02*
X11646000D01*
X9850000Y7345000D02*
X9850001Y7350000D01*
X10325000Y5975000D02*
X10375000D01*
X9850000Y6050000D02*
Y6050001D01*
X9481363Y8050000D02*
X9728432D01*
X9426173Y7871173D02*
X9430000Y7875000D01*
X8950000Y8100000D02*
Y8525000D01*
Y8100000D02*
X9100000Y7950000D01*
X9850000Y6545711D02*
X9850000Y7345000D01*
X9850000Y6225000D02*
Y6545711D01*
Y6165000D02*
X9850000Y6050001D01*
X9850000Y6165000D02*
Y6225000D01*
X9820710Y6575000D02*
X9850000Y6545711D01*
X9293143Y6575000D02*
X9820710D01*
X9625000Y7835000D02*
X9650000Y7850000D01*
X9571316Y7802789D02*
X9625000Y7835000D01*
X9426173Y7821544D02*
Y7871173D01*
X9494841Y7801332D02*
X9571316Y7802789D01*
X9450000Y7800478D02*
X9494841Y7801332D01*
X9424882Y7800000D02*
X9450000Y7800478D01*
X9100000Y7825000D02*
Y7950000D01*
X9404235Y7799606D02*
X9426173Y7821544D01*
X9100000Y7825000D02*
X9101577Y7793842D01*
X9404235Y7799606D02*
X9424882Y7800000D01*
X9276480Y6591664D02*
X9278496Y6589647D01*
X9278499Y6589643D02*
X9293143Y6575000D01*
X9101577Y7793842D02*
X9404235Y7799606D01*
X9101577Y7793842D02*
X9152031Y6797329D01*
X9187310Y6703921D02*
X9276480Y6591664D01*
D15*
X9469466Y8053012D02*
G03*
X9481363Y8050000I11897J21989D01*
G01*
X10209428Y8144352D02*
G03*
X10215418Y8134581I23742J7833D01*
G01*
X10209428Y8144352D02*
G03*
X10169335Y8184434I-59428J-19352D01*
G01*
X10159581Y8190418D02*
G03*
X10169335Y8184434I17604J17752D01*
G01*
X11140067Y8734933D02*
Y8747567D01*
X11142500Y8750000D01*
X11150000D01*
X11575000Y8568587D02*
Y8750000D01*
X9525000Y8150000D02*
X9589568D01*
X9614568Y8125000D01*
X9625000D01*
X11346000Y8527000D02*
X11348000Y8529000D01*
X11871247Y7264654D02*
X11871247Y7264654D01*
X11871247Y7185340D02*
Y7264654D01*
X11725000Y7175000D02*
Y7262500D01*
X11489300Y7100000D02*
X11614300D01*
X10850000Y7150000D02*
X10925000D01*
X10575000Y7153981D02*
Y7210000D01*
X10570000Y7148981D02*
X10575000Y7153981D01*
X10200000Y8325000D02*
Y8325000D01*
Y8325000D02*
X10275000D01*
X9900000Y8325000D02*
X9975000D01*
X9975000Y8325000D02*
Y8325000D01*
X9190000Y8535000D02*
X9256250D01*
X9175000Y8550000D02*
X9190000Y8535000D01*
X9266250Y8525000D02*
X9352500D01*
X9256250Y8535000D02*
X9266250Y8525000D01*
X9173697Y8548697D02*
X9175000Y8550000D01*
X9098916Y8547394D02*
X9100219Y8548697D01*
X9180000Y8375000D02*
X9230000Y8425000D01*
X9352500D01*
X10125000Y7925787D02*
X10150000Y7967671D01*
X10125000Y7890000D02*
Y7925787D01*
X9875001Y7475000D02*
X10010000D01*
X11575000Y8568587D02*
X11600000Y8543588D01*
Y8527000D02*
Y8543588D01*
X10743484Y7825000D02*
X10748485Y7830001D01*
X10690000Y7825000D02*
X10743484D01*
X10169335Y8430947D02*
Y8450000D01*
X10050000Y7950000D02*
X10075000Y7925000D01*
X10050000Y7950000D02*
Y8075000D01*
X10000888Y8262500D02*
X10169335Y8430947D01*
X9937500Y8262500D02*
X10000888D01*
X9865492Y8190492D02*
X9937500Y8262500D01*
X10075000Y7862500D02*
Y7890000D01*
X10063610Y7862500D02*
X10075000D01*
Y7890000D02*
Y7925000D01*
X10037500Y7825000D02*
Y7836391D01*
X10063610Y7862500D01*
X10010000Y7825000D02*
X10037500D01*
X9880000D02*
X10010000D01*
X11910700Y6575000D02*
X12195000D01*
X11900000Y6585700D02*
X11910700Y6575000D01*
X9968861Y7425000D02*
X10010000D01*
X9937500Y7387500D02*
Y7393640D01*
X9968861Y7425000D01*
X9855001Y7800000D02*
X9880000Y7825000D01*
X9900000Y7350000D02*
X9937500Y7387500D01*
X10625000Y7143818D02*
Y7210000D01*
X9825000Y8190492D02*
X9865492D01*
X9728432Y8050000D02*
X9743077Y8064645D01*
X9407500Y8132500D02*
X9425000Y8150000D01*
X9395675Y8093175D02*
X9469411Y8053042D01*
X9469466Y8053012D01*
X9180000Y8650000D02*
X9255000Y8575000D01*
X9425000Y8150000D02*
Y8300000D01*
X9407500Y8105000D02*
Y8132500D01*
X9395675Y8093175D02*
X9407500Y8105000D01*
X9352500Y8050000D02*
X9395675Y8093175D01*
X9255000Y8575000D02*
X9352500D01*
X10019957Y8225000D02*
X10125000D01*
X9766383Y7987500D02*
X10001383Y8222500D01*
X10017457D02*
X10019957Y8225000D01*
X10001383Y8222500D02*
X10017457D01*
X10125000Y8225000D02*
X10159507Y8190492D01*
X9312500Y7987500D02*
X9766383D01*
X9250000Y8050000D02*
X9312500Y7987500D01*
X9250000Y8050000D02*
Y8300000D01*
X9284645Y8334645D01*
X9287145D01*
X9327500Y8375000D02*
X9352500D01*
X9287145Y8334645D02*
X9327500Y8375000D01*
X10215492Y8134507D02*
X10225000Y8124999D01*
X10215418Y8134581D02*
X10215492Y8134507D01*
X10159507Y8190492D02*
X10159581Y8190418D01*
X11025000Y7150000D02*
Y7325000D01*
X10690000D02*
X10875000D01*
X10225000Y7890000D02*
Y8124999D01*
X10275000Y8150000D02*
X10275000Y8150000D01*
X10275000Y8150000D02*
Y8225000D01*
X10089645Y6235355D02*
X10100000Y6225000D01*
X10089645Y6235355D02*
Y7025000D01*
X10100000D01*
X10175000Y7100000D01*
Y7210000D01*
X10056140Y7100000D02*
X10125000Y7168860D01*
X9989645Y7100000D02*
X10056140D01*
X9975000Y7085355D02*
X9989645Y7100000D01*
X9975000Y6225000D02*
Y7085355D01*
X9975000Y6225000D02*
X9975000Y6225000D01*
X10125000Y7168860D02*
Y7210000D01*
D16*
X9850000Y6050000D02*
G03*
X9919821Y5975000I69822J-4999D01*
G01*
X10825000D02*
Y6922500D01*
Y5975000D02*
X10875000D01*
X9919821D02*
X10325000D01*
D17*
X9385000Y7195000D02*
D03*
Y7005000D02*
D03*
X9615000Y7195000D02*
D03*
Y7005000D02*
D03*
D18*
X11346000Y8527000D02*
D03*
Y8400000D02*
D03*
X11473000D02*
D03*
X11600000D02*
D03*
X11473000Y8527000D02*
D03*
X11600000D02*
D03*
D19*
X11200000Y8750000D02*
D03*
X10925000Y7150000D02*
D03*
X10600000Y7050000D02*
D03*
X10150000Y8075000D02*
D03*
X9525000Y8150000D02*
D03*
X9700000Y7350000D02*
D03*
X9350000D02*
D03*
X9450000D02*
D03*
X9600000D02*
D03*
X11475000Y8750000D02*
D03*
X11300000Y8750000D02*
D03*
X11575000Y8750000D02*
D03*
X10550000Y8450000D02*
D03*
X10200000D02*
D03*
X10050000Y8075000D02*
D03*
X10700000Y7050000D02*
D03*
X9425000Y8150000D02*
D03*
X10300000Y8450000D02*
D03*
X10450000D02*
D03*
X11025000Y7150000D02*
D03*
D20*
X12100000Y7880000D02*
D03*
Y7620000D02*
D03*
Y7815000D02*
D03*
Y7750000D02*
D03*
Y7685000D02*
D03*
D21*
X10850000Y7800000D02*
D03*
X11871247Y7264654D02*
D03*
X11725000Y7262500D02*
D03*
X12200000Y6895000D02*
D03*
X9900000Y8325000D02*
D03*
X10275000Y8325000D02*
D03*
X9175000Y8550000D02*
D03*
Y8375000D02*
D03*
X9800000Y7700000D02*
D03*
X9850001Y7450000D02*
D03*
X10850000Y7900000D02*
D03*
X12195000Y6575000D02*
D03*
X9175000Y8650000D02*
D03*
X9850001Y7350000D02*
D03*
X9800000Y7800000D02*
D03*
X11871247Y7364654D02*
D03*
X10275000Y8225000D02*
D03*
X12200000Y6795000D02*
D03*
X12195000Y6675000D02*
D03*
X11725000Y7362500D02*
D03*
X9900000Y8425000D02*
D03*
X9175000Y8475000D02*
D03*
D22*
X10690000Y7775000D02*
D03*
X10010000Y7475000D02*
D03*
Y7625000D02*
D03*
Y7525000D02*
D03*
X10690000Y7825000D02*
D03*
X10010000D02*
D03*
Y7425000D02*
D03*
X10690000Y7725000D02*
D03*
Y7675000D02*
D03*
Y7625000D02*
D03*
Y7575000D02*
D03*
Y7525000D02*
D03*
Y7475000D02*
D03*
Y7425000D02*
D03*
Y7375000D02*
D03*
Y7325000D02*
D03*
Y7275000D02*
D03*
X10010000D02*
D03*
Y7325000D02*
D03*
Y7375000D02*
D03*
Y7575000D02*
D03*
Y7675000D02*
D03*
Y7725000D02*
D03*
Y7775000D02*
D03*
D23*
X11489300Y7100000D02*
D03*
X11260700D02*
D03*
D24*
X11900000Y6814300D02*
D03*
Y6585700D02*
D03*
D25*
X11621500Y6802000D02*
D03*
X11387500Y6805000D02*
D03*
X11163500Y6802000D02*
D03*
D26*
X10575000Y7210000D02*
D03*
X10125000Y7890000D02*
D03*
X10075000D02*
D03*
X10625000Y7210000D02*
D03*
Y7890000D02*
D03*
X10525000D02*
D03*
X10175000D02*
D03*
X10225000D02*
D03*
X10275000D02*
D03*
X10325000D02*
D03*
X10375000D02*
D03*
X10425000D02*
D03*
X10475000D02*
D03*
X10575000D02*
D03*
X10525000Y7210000D02*
D03*
X10475000D02*
D03*
X10425000D02*
D03*
X10375000D02*
D03*
X10325000D02*
D03*
X10275000D02*
D03*
X10225000D02*
D03*
X10175000D02*
D03*
X10125000D02*
D03*
X10075000D02*
D03*
D27*
X10475000Y6225000D02*
D03*
X9850000D02*
D03*
X9975000D02*
D03*
X10225000D02*
D03*
X10350000D02*
D03*
X10100000D02*
D03*
D28*
X9675000Y8300000D02*
D03*
Y8700000D02*
D03*
X9425000Y8300000D02*
D03*
X9475000D02*
D03*
X9525000D02*
D03*
X9575000D02*
D03*
X9625000D02*
D03*
X9425000Y8700000D02*
D03*
X9475000D02*
D03*
X9525000D02*
D03*
X9575000D02*
D03*
X9625000D02*
D03*
D29*
X9550000Y8500000D02*
D03*
D30*
X9352500Y8525000D02*
D03*
Y8425000D02*
D03*
Y8575000D02*
D03*
X9747500Y8475000D02*
D03*
Y8625000D02*
D03*
X9352500Y8375000D02*
D03*
X9747500Y8575000D02*
D03*
Y8375000D02*
D03*
Y8425000D02*
D03*
Y8525000D02*
D03*
X9352500Y8475000D02*
D03*
Y8625000D02*
D03*
D31*
X10350000Y7550000D02*
D03*
D32*
X10350000Y7000000D02*
D03*
X9525000Y7500000D02*
D03*
X11875000D02*
D03*
X10500000Y7000000D02*
D03*
X9675000Y7500000D02*
D03*
X10875000Y7325000D02*
D03*
X11725000Y7500000D02*
D03*
X11025000Y7325000D02*
D03*
D33*
X9650000Y7700000D02*
D03*
Y7850000D02*
D03*
D34*
X11392500Y6133000D02*
D03*
D35*
X12108500Y7998750D02*
D03*
Y7501250D02*
D03*
D36*
X12366000Y7905000D02*
D03*
D37*
Y7635000D02*
D03*
D38*
Y8087500D02*
D03*
Y7412500D02*
D03*
D39*
X9665000Y5945000D02*
D03*
X10660000D02*
D03*
D40*
X9808336Y7560000D02*
X9855095D01*
X9798484Y7501516D02*
X9814468Y7517500D01*
X9796924Y7571412D02*
X9808336Y7560000D01*
X9770001Y7506412D02*
X9774896Y7501516D01*
X9743077Y7571412D02*
X9796924D01*
X9711665Y7540000D02*
X9743077Y7571412D01*
X9814468Y7517500D02*
X9869164D01*
X9855095Y7560000D02*
X9870095Y7575000D01*
X9774896Y7501516D02*
X9798484D01*
X11245000Y8810000D02*
X11297500Y8757500D01*
X11065281Y8745000D02*
X11130281Y8810000D01*
X11297500Y8752500D02*
Y8757500D01*
X11130281Y8810000D02*
X11245000D01*
X10944995Y8745000D02*
X11065281D01*
X9430000Y7375000D02*
X9450000Y7355000D01*
Y7289205D02*
Y7355000D01*
X9425000Y7375000D02*
X9430000D01*
X9410000Y7390000D02*
X9425000Y7375000D01*
X9400000Y7403033D02*
X9410000Y7393033D01*
Y7390000D02*
Y7393033D01*
X9400000Y7403033D02*
Y7638284D01*
X9575000Y7625000D02*
X10010000D01*
X9411716Y7650000D02*
X9550000D01*
X9575000Y7625000D01*
X9450000Y7289205D02*
X9480000Y7259205D01*
Y7090000D02*
Y7259205D01*
X9400000Y7638284D02*
X9411716Y7650000D01*
X9395000Y7005000D02*
X9480000Y7090000D01*
X9385000Y7005000D02*
X9395000D01*
X9600000Y7350000D02*
Y7355000D01*
X9580000Y7375000D02*
X9600000Y7355000D01*
X9575000Y7375000D02*
X9580000D01*
X9525000Y7425000D02*
X9575000Y7375000D01*
X9525000Y7425000D02*
Y7500000D01*
X9600000Y7210000D02*
Y7350000D01*
Y7210000D02*
X9615000Y7195000D01*
X11474000Y8528000D02*
Y8749000D01*
X11300000Y8750000D02*
X11473000D01*
Y8527000D02*
X11474000Y8528000D01*
X11473000Y8750000D02*
X11474000Y8749000D01*
X9876664Y7525000D02*
X10010000D01*
X9869164Y7517500D02*
X9876664Y7525000D01*
X9705000Y7540000D02*
X9711665D01*
X9675000Y7500000D02*
Y7510000D01*
X9705000Y7540000D01*
X9870095Y7575000D02*
X10010000D01*
D41*
X11400000Y8825000D02*
X11427403Y8852404D01*
X11067500Y8825000D02*
X11107500Y8865000D01*
X11309246D02*
X11349246Y8825000D01*
X11107500Y8865000D02*
X11309246D01*
X10550000Y8825000D02*
X11067500D01*
X11349246D02*
X11400000D01*
X10550000Y8625000D02*
Y8825000D01*
X9175000Y8725000D02*
Y8789853D01*
X9210147Y8825000D01*
X10550000D01*
D42*
X10690000Y7775000D02*
X10748825D01*
X11473000Y8273000D02*
Y8400000D01*
X11275000Y8075000D02*
X11473000Y8273000D01*
X10700001Y8075000D02*
X11275000D01*
X10625000Y8000000D02*
X10700001Y8075000D01*
X10625000Y7890000D02*
Y8000000D01*
X10690000Y7725000D02*
X11050000D01*
X11600000Y8275000D02*
Y8400000D01*
X11050000Y7725000D02*
X11600000Y8275000D01*
X10525000Y8075000D02*
X10650000Y8200000D01*
X11250000D02*
X11346000Y8296000D01*
X10650000Y8200000D02*
X11250000D01*
X10525000Y7890000D02*
Y8075000D01*
X11346000Y8296000D02*
Y8400000D01*
X10442678Y8457322D02*
X10450000Y8450000D01*
X10442678Y8457322D02*
Y8517678D01*
X10435356Y8525000D02*
X10442678Y8517678D01*
X9875000Y8525000D02*
X10100000D01*
X9825000Y8575000D02*
X9875000Y8525000D01*
X9747500Y8575000D02*
X9825000D01*
X9747500Y8625000D02*
X10275000D01*
X10300000Y8600000D01*
Y8450000D02*
Y8600000D01*
X10275000Y7890000D02*
Y8150000D01*
X10300000Y8445000D02*
X10352323Y8392677D01*
X10357323D01*
X10375000Y8375000D01*
Y8025000D02*
Y8375000D01*
X10350000Y8000000D02*
X10375000Y8025000D01*
X10339644Y8000000D02*
X10350000D01*
X10325000Y7985356D02*
X10339644Y8000000D01*
X10325000Y7890000D02*
Y7985356D01*
X10450000Y8006139D02*
Y8450000D01*
X10375000Y7931139D02*
X10450000Y8006139D01*
X10375000Y7890000D02*
Y7931139D01*
X10225000Y6225000D02*
Y7182499D01*
X10225000Y7182499D01*
Y7209999D01*
X10225000Y7210000D02*
X10225000Y7209999D01*
X10350000Y6225000D02*
Y6825000D01*
X10275000Y6900000D02*
X10350000Y6825000D01*
X10275000Y6900000D02*
Y7210000D01*
X10500000Y7000000D02*
X10503069Y7003069D01*
Y7146930D01*
X10520000Y7163861D01*
Y7170000D01*
X10525000Y7175000D01*
Y7210000D01*
D43*
X9175000Y8475000D02*
X9352500D01*
X9900000Y8425000D02*
X9900000Y8425000D01*
X9747500Y8425000D02*
X9900000D01*
D44*
X12090550Y7740550D02*
X12100000Y7750000D01*
X11296855Y7673050D02*
X11364355Y7740550D01*
X10690000Y7675000D02*
X10716400D01*
X10718350Y7673050D01*
X11296855D01*
X11364355Y7740550D02*
X12090550D01*
X11383450Y7694450D02*
X12090550D01*
X10716400Y7625000D02*
X10718350Y7626950D01*
X11315950D01*
X12090550Y7694450D02*
X12100000Y7685000D01*
X10690000Y7625000D02*
X10716400D01*
X11315950Y7626950D02*
X11383450Y7694450D01*
D45*
X12483545Y8572129D02*
D03*
X8875000Y6225000D02*
D03*
D46*
X12425000Y8800000D02*
D03*
Y5950000D02*
D03*
X8950000D02*
D03*
Y8789853D02*
D03*
D47*
X11219000Y8565100D02*
D03*
Y8361900D02*
D03*
X11727000Y8463500D02*
D03*
D48*
X12300007Y8600005D02*
D03*
X12200007Y8400005D02*
D03*
Y7200004D02*
D03*
X12300007Y6600004D02*
D03*
X12200007Y6400003D02*
D03*
X12300007Y6200003D02*
D03*
X12200007Y6000003D02*
D03*
X12100007Y8200004D02*
D03*
X12000006Y6400003D02*
D03*
X12100007Y6200003D02*
D03*
X12000006Y6000003D02*
D03*
X11900006Y8600005D02*
D03*
X11700006D02*
D03*
Y8200004D02*
D03*
Y6200003D02*
D03*
X11400006Y7600004D02*
D03*
X11300006Y7800004D02*
D03*
Y7400004D02*
D03*
X11200006Y6400003D02*
D03*
X11000006Y6800004D02*
D03*
X11100006Y6600004D02*
D03*
X11000006Y6400003D02*
D03*
X11100006Y6200003D02*
D03*
X10800006Y8400005D02*
D03*
X10900006Y7000004D02*
D03*
X10700006Y8600005D02*
D03*
X10600006Y6800004D02*
D03*
X10700006Y6600004D02*
D03*
X10600006Y6400003D02*
D03*
X10700006Y6200003D02*
D03*
X10500006Y6600004D02*
D03*
X10000005Y7200004D02*
D03*
X9600005Y6800004D02*
D03*
Y6400003D02*
D03*
X9700005Y6200003D02*
D03*
X9400005Y6800004D02*
D03*
Y6400003D02*
D03*
X9500005Y6200003D02*
D03*
X9400005Y6000003D02*
D03*
X9200005Y8000004D02*
D03*
Y7600004D02*
D03*
Y6400003D02*
D03*
X9300005Y6200003D02*
D03*
X9200005Y6000003D02*
D03*
X9100005Y8200004D02*
D03*
X9000005Y7600004D02*
D03*
Y7200004D02*
D03*
Y6800004D02*
D03*
X9100005Y6600004D02*
D03*
X9000005Y6400003D02*
D03*
X9100005Y6200003D02*
D03*
D49*
X9752361Y7423163D02*
D03*
X11140067Y8734933D02*
D03*
X10944995Y8745000D02*
D03*
X11350000Y8600000D02*
D03*
X9900000Y8745000D02*
D03*
X11450000Y7975000D02*
D03*
X11150000D02*
D03*
X9250000Y7200000D02*
D03*
Y7350000D02*
D03*
X9625000Y8125000D02*
D03*
X11925000Y7875000D02*
D03*
X12221000D02*
D03*
X10925000Y7800000D02*
D03*
X11871247Y7185340D02*
D03*
X12200000Y6975000D02*
D03*
X11725000Y7175000D02*
D03*
X11614300Y7100000D02*
D03*
X11900000Y6925000D02*
D03*
X11625000D02*
D03*
X10850000Y7150000D02*
D03*
X10600000Y6950000D02*
D03*
X10400000Y6900000D02*
D03*
X10475000Y6075000D02*
D03*
X9975000Y8325000D02*
D03*
X10200000D02*
D03*
X10150000Y8125000D02*
D03*
X9675000Y8200000D02*
D03*
X9098916Y8547394D02*
D03*
X9100000Y8375000D02*
D03*
X9550000Y7725000D02*
D03*
X9750000Y7275000D02*
D03*
X9725000Y7000000D02*
D03*
X10825000Y5975000D02*
D03*
X10375000D02*
D03*
X9430000Y7875000D02*
D03*
X9352500Y8050000D02*
D03*
X10435356Y8525000D02*
D03*
X10100000D02*
D03*
D50*
X9770001Y7506412D02*
D03*
D51*
X10460000Y7770000D02*
D03*
X10350000D02*
D03*
X10570000D02*
D03*
X10350000Y7660000D02*
D03*
X10570000D02*
D03*
Y7550000D02*
D03*
X10460000Y7440000D02*
D03*
X10570000D02*
D03*
X10460000Y7330000D02*
D03*
Y7660000D02*
D03*
Y7550000D02*
D03*
X10350000D02*
D03*
Y7330000D02*
D03*
Y7440000D02*
D03*
X10570000Y7330000D02*
D03*
X9605000Y8555000D02*
D03*
X9495000D02*
D03*
Y8445000D02*
D03*
X9605000D02*
D03*
X10240000Y7770000D02*
D03*
Y7660000D02*
D03*
X10130000Y7770000D02*
D03*
Y7660000D02*
D03*
Y7550000D02*
D03*
X10240000D02*
D03*
Y7440000D02*
D03*
X10130000Y7330000D02*
D03*
X10240000D02*
D03*
X10130000Y7440000D02*
D03*
%TF.MD5,89b7e2521013b61681f6e825e68780eb*%
M02*
