%TF.GenerationSoftware,Altium Limited,Altium Designer,26.9.1 (10)*%
G04 Layer_Color=0*
G04 Board_Origin=0|0*
%FSLAX45Y45*%
%MOMM*%
%TF.SameCoordinates,4240BD10-6AC7-45DB-958D-C0A4B6E88BAE*%
%TF.FilePolarity,Positive*%
%TF.FileFunction,Plated,1,4,PTH,Drill*%
%TF.Part,Single*%
G01*
G75*
%TA.AperFunction,OtherDrill,Pad Free-15 (124.835mm,85.721mm)*%
%ADD84C,1.12500*%
%TA.AperFunction,OtherDrill,Pad Free-TH (88.75mm,62.25mm)*%
%ADD85C,1.15000*%
%TA.AperFunction,OtherDrill,Pad Free-15 (124.25mm,88mm)*%
%ADD86C,2.00000*%
%TA.AperFunction,OtherDrill,Pad Free-15 (124.25mm,59.5mm)*%
%ADD87C,2.00000*%
%TA.AperFunction,OtherDrill,Pad Free-15 (89.5mm,59.5mm)*%
%ADD88C,2.00000*%
%TA.AperFunction,OtherDrill,Pad Free-15 (89.5mm,87.899mm)*%
%ADD89C,2.00000*%
%TA.AperFunction,ViaDrill,NotFilled*%
%ADD90C,0.40000*%
%ADD91C,0.30000*%
%ADD92C,0.20000*%
D84*
X12483545Y8572129D02*
D03*
D85*
X8875000Y6225000D02*
D03*
D86*
X12425000Y8800000D02*
D03*
D87*
Y5950000D02*
D03*
D88*
X8950000D02*
D03*
D89*
Y8789853D02*
D03*
D90*
X12300007Y8600005D02*
D03*
X12200007Y8400005D02*
D03*
Y7200004D02*
D03*
X12300007Y6600004D02*
D03*
X12200007Y6400003D02*
D03*
X12300007Y6200003D02*
D03*
X12200007Y6000003D02*
D03*
X12100007Y8200004D02*
D03*
X12000006Y6400003D02*
D03*
X12100007Y6200003D02*
D03*
X12000006Y6000003D02*
D03*
X11900006Y8600005D02*
D03*
X11700006D02*
D03*
Y8200004D02*
D03*
Y6200003D02*
D03*
X11400006Y7600004D02*
D03*
X11300006Y7800004D02*
D03*
Y7400004D02*
D03*
X11200006Y6400003D02*
D03*
X11000006Y6800004D02*
D03*
X11100006Y6600004D02*
D03*
X11000006Y6400003D02*
D03*
X11100006Y6200003D02*
D03*
X10800006Y8400005D02*
D03*
X10900006Y7000004D02*
D03*
X10700006Y8600005D02*
D03*
X10600006Y6800004D02*
D03*
X10700006Y6600004D02*
D03*
X10600006Y6400003D02*
D03*
X10700006Y6200003D02*
D03*
X10500006Y6600004D02*
D03*
X10000005Y7200004D02*
D03*
X9600005Y6800004D02*
D03*
Y6400003D02*
D03*
X9700005Y6200003D02*
D03*
X9400005Y6800004D02*
D03*
Y6400003D02*
D03*
X9500005Y6200003D02*
D03*
X9400005Y6000003D02*
D03*
X9200005Y8000004D02*
D03*
Y7600004D02*
D03*
Y6400003D02*
D03*
X9300005Y6200003D02*
D03*
X9200005Y6000003D02*
D03*
X9100005Y8200004D02*
D03*
X9000005Y7600004D02*
D03*
Y7200004D02*
D03*
Y6800004D02*
D03*
X9100005Y6600004D02*
D03*
X9000005Y6400003D02*
D03*
X9100005Y6200003D02*
D03*
D91*
X9752361Y7423163D02*
D03*
X9770001Y7506412D02*
D03*
X11140067Y8734933D02*
D03*
X10944995Y8745000D02*
D03*
X11350000Y8600000D02*
D03*
X9900000Y8745000D02*
D03*
X11450000Y7975000D02*
D03*
X11150000D02*
D03*
X9250000Y7200000D02*
D03*
Y7350000D02*
D03*
X9625000Y8125000D02*
D03*
X11925000Y7875000D02*
D03*
X12221000D02*
D03*
X10925000Y7800000D02*
D03*
X11871247Y7185340D02*
D03*
X12200000Y6975000D02*
D03*
X11725000Y7175000D02*
D03*
X11614300Y7100000D02*
D03*
X11900000Y6925000D02*
D03*
X11625000D02*
D03*
X10850000Y7150000D02*
D03*
X10600000Y6950000D02*
D03*
X10400000Y6900000D02*
D03*
X10475000Y6075000D02*
D03*
X9975000Y8325000D02*
D03*
X10200000D02*
D03*
X10150000Y8125000D02*
D03*
X9675000Y8200000D02*
D03*
X9098916Y8547394D02*
D03*
X9100000Y8375000D02*
D03*
X9550000Y7725000D02*
D03*
X9750000Y7275000D02*
D03*
X9725000Y7000000D02*
D03*
X10825000Y5975000D02*
D03*
X10375000D02*
D03*
X9430000Y7875000D02*
D03*
X9352500Y8050000D02*
D03*
X10435356Y8525000D02*
D03*
X10100000D02*
D03*
D92*
X10460000Y7770000D02*
D03*
X10350000D02*
D03*
X10570000D02*
D03*
X10350000Y7660000D02*
D03*
X10570000D02*
D03*
Y7550000D02*
D03*
X10460000Y7440000D02*
D03*
X10570000D02*
D03*
X10460000Y7330000D02*
D03*
Y7660000D02*
D03*
Y7550000D02*
D03*
X10350000D02*
D03*
Y7330000D02*
D03*
Y7440000D02*
D03*
X10570000Y7330000D02*
D03*
X9605000Y8555000D02*
D03*
X9495000D02*
D03*
Y8445000D02*
D03*
X9605000D02*
D03*
X10240000Y7770000D02*
D03*
Y7660000D02*
D03*
X10130000Y7770000D02*
D03*
Y7660000D02*
D03*
Y7550000D02*
D03*
X10240000D02*
D03*
Y7440000D02*
D03*
X10130000Y7330000D02*
D03*
X10240000D02*
D03*
X10130000Y7440000D02*
D03*
%TF.MD5,11a3c81ba04d0d788cd1ee9baa39348c*%
M02*
